<svg aria-hidden="true" style="position: absolute; width: 0; height: 0; overflow: hidden;" version="1.1" xmlns="http://www.w3.org/2000/svg" xmlns:xlink="http://www.w3.org/1999/xlink">
<defs>
<symbol id="icon-honesty" viewBox="0 0 58 32">
<path d="M28.219 0.081c-0.456 0.119-0.7 0.269-1.038 0.619-0.594 0.619-0.756 1.563-0.4 2.344 0.094 0.219 0.212 0.425 0.256 0.462 0.063 0.050 0.087 0.219 0.087 0.531v0.456l-0.2 0.037c-0.113 0.019-2.194 0.369-4.619 0.775-4.85 0.806-4.75 0.781-5 1.275-0.169 0.325-0.144 0.894 0.050 1.156 0.169 0.225 0.506 0.45 0.681 0.45 0.081 0 0.163 0.037 0.194 0.075 0.025 0.044 0.044 0.419 0.038 0.838l-0.012 0.75-5.525 12.162 0.069 0.438c0.244 1.594 1.825 2.819 4.269 3.306 0.844 0.169 2.438 0.188 3.275 0.031 1.663-0.3 2.794-0.844 3.65-1.762 0.462-0.494 0.731-1.012 0.813-1.587l0.063-0.406-2.781-6.125-2.775-6.125v-1.531h7.813v11.219l-0.206 0.2c-0.119 0.113-0.244 0.313-0.281 0.444-0.056 0.175-0.075 1.35-0.075 4.094v3.85l-0.981 0.313c-0.544 0.169-1.306 0.413-1.7 0.531-0.881 0.275-1.188 0.456-1.438 0.825-0.238 0.369-0.288 0.587-0.288 1.35 0 0.55 0.012 0.625 0.144 0.75l0.144 0.144h12.613l0.144-0.144c0.131-0.125 0.144-0.2 0.144-0.75 0-0.762-0.050-0.981-0.288-1.35-0.25-0.369-0.556-0.55-1.438-0.825-0.394-0.119-1.156-0.363-1.694-0.531l-0.988-0.313v-3.85c0-2.744-0.019-3.919-0.075-4.094-0.038-0.131-0.163-0.331-0.281-0.444l-0.206-0.2v-11.219h7.813v1.544l-2.756 6.056c-2.513 5.525-2.756 6.081-2.75 6.375 0.013 0.644 0.294 1.244 0.875 1.863 0.819 0.856 1.981 1.413 3.6 1.7 0.837 0.156 2.431 0.137 3.3-0.038 2.419-0.475 4-1.706 4.25-3.313l0.063-0.425-5.525-12.162-0.013-0.75c-0.006-0.419 0.013-0.794 0.038-0.838 0.031-0.037 0.112-0.075 0.194-0.075 0.175 0 0.513-0.225 0.681-0.45 0.194-0.263 0.219-0.831 0.050-1.156-0.25-0.494-0.125-0.463-5.15-1.275-2.519-0.406-4.594-0.744-4.619-0.744-0.094 0-0.056-0.981 0.038-1.056 0.044-0.038 0.163-0.244 0.256-0.462 0.231-0.5 0.244-1.144 0.038-1.675-0.169-0.45-0.644-0.95-1.081-1.15-0.413-0.188-1.031-0.244-1.456-0.138zM29.206 1.15c0.994 0.425 0.819 1.938-0.244 2.138-1.056 0.2-1.769-1.087-1.038-1.875 0.319-0.337 0.85-0.45 1.281-0.262zM29.019 4.331l0.294-0.037v15.081h-1.125v-15.106l0.269 0.050c0.144 0.025 0.394 0.031 0.563 0.013zM27.125 6.375v0.813h-4.475c-3.5 0-4.469-0.019-4.45-0.075 0.019-0.050 1.563-0.338 4.369-0.806 2.387-0.4 4.387-0.731 4.45-0.737 0.094-0.006 0.106 0.069 0.106 0.806zM34.931 6.331c2.8 0.456 4.35 0.731 4.369 0.781 0.019 0.056-0.975 0.075-4.45 0.075h-4.475v-0.781c0-0.706 0.012-0.781 0.113-0.775 0.056 0 2.056 0.319 4.444 0.7zM21.169 16.381c1.281 2.825 2.325 5.15 2.313 5.163s-2.131 0.012-4.706 0.006l-4.688-0.019 2.35-5.162c1.288-2.844 2.356-5.156 2.369-5.144s1.075 2.331 2.363 5.156zM41.581 17.5l1.831 4.031-4.688 0.019c-2.575 0.006-4.694 0.006-4.706-0.006s0.994-2.256 2.237-4.988c1.244-2.731 2.3-5.056 2.35-5.175l0.087-0.213 0.531 1.15c0.288 0.631 1.35 2.963 2.356 5.181zM29.875 24.156v3.781h-2.25v-7.563h2.25v3.781zM23.688 22.663c0 0.212-0.575 0.856-1.063 1.181-1.9 1.262-5.113 1.369-7.256 0.244-0.506-0.269-1.156-0.844-1.356-1.206l-0.144-0.256h4.906c2.7 0 4.913 0.019 4.913 0.038zM43.487 22.881c-0.2 0.363-0.85 0.938-1.356 1.206-2.144 1.125-5.356 1.019-7.256-0.244-0.487-0.325-1.063-0.969-1.063-1.181 0-0.019 2.212-0.038 4.913-0.038h4.906l-0.144 0.256zM32.156 29.531c2.081 0.65 2.156 0.694 2.156 1.163v0.244h-11.125v-0.244c0-0.469 0.081-0.512 2.125-1.163l1.844-0.581 3.125-0.012 1.875 0.594z"></path>
</symbol>
<symbol id="icon-idea" viewBox="0 0 29 32">
<path d="M14.414 0.178c-0.027 0.096-0.041 0.889-0.027 1.75 0.041 1.45 0.055 1.559 0.315 1.559s0.274-0.109 0.315-1.436c0.027-0.793 0-1.573-0.041-1.75-0.082-0.328-0.451-0.41-0.561-0.123z"></path>
<path d="M5.497 3.87c-0.123 0.137 0.123 0.451 1.053 1.381 1.121 1.108 1.518 1.34 1.518 0.848 0-0.15-2.202-2.407-2.366-2.407-0.027 0-0.123 0.082-0.205 0.178z"></path>
<path d="M22.455 4.827c-0.615 0.615-1.121 1.203-1.121 1.285 0 0.479 0.41 0.232 1.518-0.862 0.93-0.93 1.176-1.244 1.053-1.381-0.082-0.096-0.178-0.178-0.232-0.178s-0.588 0.506-1.217 1.135z"></path>
<path d="M12.718 4.868c-2.421 0.643-4.499 2.311-5.58 4.485-0.629 1.258-0.862 2.284-0.862 3.774 0 2.12 0.656 3.815 2.256 5.812 0.834 1.039 0.957 1.368 1.463 3.802 0.178 0.862 0.41 1.614 0.561 1.805l0.26 0.342h7.768l0.26-0.328c0.137-0.191 0.369-0.848 0.492-1.477 0.643-3.036 0.588-2.885 1.6-4.239 1.026-1.381 1.778-2.79 2.038-3.87 0.219-0.944 0.191-2.981-0.068-3.938-0.998-3.788-4.417-6.414-8.328-6.373-0.615 0-1.45 0.096-1.86 0.205zM16.834 5.552c2.53 0.738 4.595 2.735 5.361 5.183 0.451 1.422 0.41 3.61-0.068 4.868-0.41 1.053-0.848 1.778-1.75 2.926-0.93 1.176-1.067 1.518-1.504 3.651-0.219 1.067-0.479 1.983-0.574 2.038-0.096 0.068-1.764 0.123-3.706 0.123h-3.515l-0.123-0.315c-0.068-0.164-0.274-1.094-0.479-2.051-0.397-1.997-0.438-2.092-1.627-3.679-1.067-1.422-1.545-2.407-1.819-3.638-0.26-1.258-0.232-2.256 0.082-3.515 0.684-2.653 2.626-4.691 5.333-5.552 0.998-0.328 3.35-0.342 4.39-0.041z"></path>
<path d="M17.942 10.694c-0.369 0.697-1.272 2.434-2.010 3.843l-1.326 2.585-1.614-1.586c-1.518-1.518-2.051-1.86-2.051-1.354 0 0.219 3.132 3.501 3.583 3.747 0.274 0.15 0.315 0.096 2.762-4.636 1.026-1.969 1.832-3.651 1.791-3.72-0.205-0.342-0.506-0.041-1.135 1.121z"></path>
<path d="M1.696 12.868c-0.191 0.315 0.26 0.451 1.559 0.506 1.491 0.055 2.229-0.109 1.942-0.451-0.137-0.164-0.52-0.205-1.791-0.205-1.012 0-1.641 0.055-1.709 0.15z"></path>
<path d="M24.205 12.923c-0.137 0.164-0.096 0.232 0.219 0.356 0.492 0.191 2.995 0.109 3.214-0.109 0.342-0.342-0.055-0.451-1.641-0.451-1.272 0-1.655 0.041-1.791 0.205z"></path>
<path d="M6.564 20.732c-0.684 0.656-1.231 1.244-1.231 1.313s0.096 0.15 0.219 0.205c0.15 0.055 0.574-0.273 1.368-1.067 0.629-0.629 1.149-1.217 1.149-1.313 0-0.451-0.397-0.232-1.504 0.862z"></path>
<path d="M21.374 19.761c-0.055 0.164 0.26 0.561 1.067 1.381 0.629 0.629 1.217 1.149 1.313 1.149 0.465 0 0.26-0.397-0.725-1.395-1.258-1.272-1.532-1.45-1.655-1.135z"></path>
<path d="M13.744 25.873c-1.354 0.055-2.544 0.137-2.626 0.178-0.096 0.027-0.178 0.164-0.178 0.287 0 0.219 0.26 0.232 3.35 0.137 3.761-0.096 4.198-0.15 4.144-0.479-0.055-0.273-1.149-0.301-4.691-0.123z"></path>
<path d="M14.195 27.405c-1.709 0.082-3.145 0.205-3.2 0.246-0.041 0.055-0.055 0.191 0 0.315 0.068 0.205 0.328 0.219 2.297 0.137 4.827-0.219 5.101-0.246 5.101-0.547 0-0.356-0.178-0.356-4.198-0.15z"></path>
<path d="M13.224 28.991c-1.039 0.068-1.928 0.137-1.969 0.191-0.041 0.041-0.041 0.178 0.014 0.301 0.082 0.205 0.315 0.219 2.585 0.137 3.788-0.137 4.335-0.205 4.335-0.506 0-0.246-0.123-0.26-1.532-0.232-0.848 0-2.393 0.055-3.432 0.109z"></path>
<path d="M12.212 30.304c-0.096 0.26 0.656 1.080 1.354 1.436 0.615 0.315 1.614 0.342 2.202 0.041 0.533-0.273 1.463-1.135 1.463-1.368 0-0.383-0.315-0.328-0.834 0.15-1.217 1.094-2.147 1.121-3.255 0.123-0.738-0.67-0.807-0.697-0.93-0.383z"></path>
</symbol> 
<symbol id="icon-quality" viewBox="0 0 32 32">
<path d="M14.816 1.318c-2.97 0.314-5.376 1.242-7.712 2.982-0.781 0.582-2.221 2.022-2.803 2.803-1.549 2.080-2.477 4.282-2.874 6.797-0.154 1.005-0.154 3.194 0 4.198 0.762 4.864 3.776 8.973 8.154 11.123 5.037 2.477 11.072 1.824 15.526-1.677 0.691-0.544 2.074-1.958 2.586-2.65 1.69-2.259 2.694-4.819 2.957-7.514 0.525-5.37-2.042-10.675-6.618-13.69-1.747-1.146-3.782-1.933-5.888-2.259-0.614-0.096-2.797-0.173-3.328-0.115zM17.286 2.63c2.47 0.25 4.762 1.146 6.746 2.624 3.731 2.778 5.805 7.443 5.344 12.032-0.531 5.254-4.141 9.792-9.114 11.443-3.392 1.126-6.925 0.896-10.131-0.666-4.186-2.042-7.040-6.131-7.507-10.778-0.486-4.89 1.85-9.76 6.010-12.499 2.541-1.677 5.696-2.464 8.653-2.157z"></path>
<path d="M15.014 5.21c-0.55 0.205-0.806 0.621-0.96 1.574-0.128 0.794-0.256 1.216-0.525 1.728-0.429 0.813-0.736 1.12-2.579 2.554-0.723 0.563-1.101 1.005-1.882 2.176-0.64 0.96-1.094 1.478-1.293 1.478-0.077 0-0.096 0.115-0.096 0.646v0.653l0.262-0.045c0.749-0.122 1.19-0.525 2.163-1.984 0.819-1.222 0.973-1.389 1.99-2.176 0.403-0.314 0.922-0.73 1.146-0.928 1.12-0.966 1.907-2.477 2.086-3.981 0.026-0.198 0.070-0.397 0.096-0.442 0.134-0.224 0.806 0.339 0.96 0.8 0.051 0.16 0.070 0.454 0.045 0.858-0.032 0.704-0.205 1.299-0.698 2.426-0.358 0.819-0.429 1.216-0.301 1.658 0.115 0.416 0.55 0.851 1.056 1.050 0.365 0.141 0.454 0.147 2.778 0.186 1.318 0.019 2.458 0.064 2.528 0.090 0.314 0.141 0.326 0.173 0.269 0.934-0.064 0.8-0.026 0.934 0.358 1.126 0.48 0.243 0.698 0.621 0.589 1.030-0.019 0.102-0.224 0.358-0.454 0.576-0.358 0.346-0.41 0.422-0.41 0.627 0 0.32 0.090 0.454 0.39 0.608s0.506 0.461 0.506 0.749c0 0.256-0.346 0.666-0.71 0.851-0.288 0.154-0.506 0.416-0.506 0.621 0 0.083 0.070 0.294 0.16 0.467 0.218 0.422 0.224 0.941 0.019 1.139-0.595 0.55-2.656 0.832-5.651 0.762-2.682-0.064-4.006-0.237-5.709-0.749-1.082-0.326-1.6-0.435-2.355-0.486l-0.608-0.045v1.299h0.307c0.544 0.006 1.178 0.128 2.157 0.416 1.741 0.518 2.707 0.678 4.973 0.806 1.421 0.083 3.936 0.045 4.909-0.070 0.806-0.096 1.741-0.339 2.227-0.576 0.467-0.23 0.986-0.762 1.094-1.133 0.096-0.32 0.102-1.024 0.006-1.286-0.064-0.192-0.058-0.218 0.25-0.512 0.179-0.173 0.403-0.467 0.499-0.659 0.16-0.294 0.186-0.422 0.186-0.858 0-0.429-0.032-0.563-0.173-0.838-0.096-0.173-0.211-0.358-0.269-0.403-0.090-0.077-0.077-0.115 0.083-0.352 0.378-0.544 0.48-1.184 0.294-1.811-0.102-0.339-0.48-0.826-0.762-0.973-0.109-0.064-0.154-0.128-0.134-0.198 0.019-0.064 0.038-0.339 0.045-0.621 0-0.454-0.019-0.557-0.179-0.851-0.192-0.358-0.538-0.634-0.998-0.813-0.23-0.090-0.666-0.115-2.675-0.147-3.11-0.045-3.091-0.038-2.682-0.941 1.005-2.227 1.165-3.814 0.486-4.96-0.493-0.838-1.568-1.325-2.31-1.050z"></path>
</symbol>
<symbol id="icon-target" viewBox="0 0 32 32">
<path d="M26.837 0.094c-0.106 0.056-1.156 1.063-2.325 2.244l-2.137 2.144v0.275c0 0.15 0.087 1.031 0.194 1.956l0.194 1.681-2.050 2.050-0.35-0.275c-2.188-1.7-5.231-2.106-7.794-1.044-2.063 0.85-3.681 2.563-4.431 4.688-0.313 0.9-0.412 1.488-0.412 2.531-0.006 1.069 0.075 1.6 0.375 2.525 0.887 2.725 3.281 4.794 6.113 5.288 0.713 0.119 1.988 0.119 2.7 0 3.025-0.531 5.506-2.837 6.269-5.819 0.569-2.225 0.113-4.644-1.225-6.506-0.181-0.256-0.331-0.481-0.331-0.506s0.456-0.5 1.019-1.050l1.012-1.006 1.75 0.206c0.962 0.113 1.813 0.206 1.887 0.213 0.081 0 0.256-0.1 0.394-0.225s0.262-0.219 0.275-0.206c0.094 0.119 0.519 0.963 0.744 1.494 0.506 1.194 0.813 2.287 1.019 3.625 0.156 0.994 0.156 3.069 0 4.063-0.731 4.744-3.625 8.719-7.875 10.813-2 0.981-4 1.45-6.256 1.456-2.188 0-4.156-0.419-5.969-1.281-0.688-0.325-0.95-0.337-1.194-0.063-0.206 0.231-0.238 0.525-0.075 0.756 0.056 0.081 0.356 0.269 0.669 0.413 4.656 2.169 10.212 1.863 14.6-0.806 1.5-0.913 3.238-2.475 4.262-3.825 1.656-2.181 2.669-4.594 3.094-7.381 0.131-0.863 0.144-3.169 0.025-4.019-0.256-1.869-0.756-3.494-1.581-5.125l-0.55-1.094 1.563-1.563c1.675-1.681 1.681-1.688 1.469-2.094-0.050-0.1-0.144-0.213-0.206-0.244-0.063-0.037-0.894-0.156-1.844-0.263l-1.731-0.206-0.031-0.188c-0.019-0.106-0.1-0.825-0.188-1.6s-0.188-1.512-0.219-1.644c-0.106-0.375-0.506-0.556-0.85-0.388zM26.781 3.244l0.113 1.019-1.494 1.494c-0.825 0.825-1.5 1.475-1.506 1.45-0.006-0.031-0.075-0.531-0.144-1.112l-0.125-1.063 1.481-1.481c0.925-0.925 1.5-1.456 1.525-1.406 0.019 0.038 0.087 0.538 0.15 1.1zM29.050 5.287l0.962 0.106-1.5 1.5-1.506 1.5-1.019-0.106c-0.563-0.063-1.063-0.125-1.106-0.137-0.063-0.019 0.431-0.556 1.406-1.531 1.294-1.294 1.512-1.494 1.65-1.469 0.087 0.019 0.587 0.081 1.113 0.138zM16.231 9.819c1.137 0.125 2.344 0.581 3.206 1.219l0.394 0.287-1.856 1.856-0.175-0.125c-0.294-0.213-0.988-0.5-1.419-0.594-2.088-0.444-4.238 0.919-4.725 2.988-0.106 0.463-0.119 1.344-0.025 1.813 0.1 0.506 0.569 1.406 0.931 1.813 0.431 0.488 1.137 0.944 1.769 1.15 0.438 0.15 0.613 0.175 1.231 0.169 0.606 0 0.8-0.025 1.231-0.169 1.188-0.387 2.106-1.294 2.569-2.525 0.119-0.319 0.163-0.581 0.188-1.106 0.031-0.831-0.056-1.262-0.431-2.025l-0.256-0.525 0.894-0.894c0.494-0.494 0.919-0.9 0.944-0.9 0.075 0 0.619 0.863 0.863 1.387 0.813 1.738 0.813 3.781 0 5.531-0.831 1.788-2.425 3.125-4.356 3.656-0.413 0.113-0.663 0.137-1.613 0.137-0.988 0.006-1.188-0.012-1.656-0.137-2.375-0.65-4.169-2.438-4.794-4.794-0.144-0.55-0.162-0.744-0.162-1.625s0.019-1.075 0.162-1.625c0.287-1.075 0.85-2.1 1.613-2.931 0.969-1.063 2.606-1.875 4.088-2.031 0.719-0.075 0.725-0.075 1.388 0zM16.219 13.713c0.175 0.044 0.438 0.144 0.587 0.219l0.275 0.144-1.137 1.137c-1.056 1.062-1.131 1.156-1.131 1.369 0 0.35 0.281 0.637 0.619 0.637 0.25 0 0.287-0.038 1.381-1.125 0.906-0.906 1.137-1.106 1.188-1.031 0.038 0.050 0.125 0.287 0.194 0.519 0.206 0.656 0.156 1.369-0.144 1.988-0.675 1.419-2.313 1.994-3.713 1.306-1.219-0.6-1.813-2.006-1.4-3.319 0.425-1.369 1.919-2.213 3.281-1.844z"></path>
<path d="M14.469 0.85c-3.906 0.325-7.331 1.919-10.006 4.662-2.431 2.481-3.856 5.419-4.344 8.925-0.106 0.775-0.113 3.1 0 3.875 0.244 1.775 0.744 3.431 1.506 4.969 0.506 1.031 1.288 2.269 1.769 2.813 0.25 0.281 0.3 0.313 0.544 0.313 0.219 0 0.294-0.038 0.45-0.212 0.275-0.306 0.225-0.55-0.25-1.169-2.856-3.769-3.656-8.894-2.075-13.356 1.606-4.544 5.35-7.969 9.975-9.144 1.494-0.375 3.25-0.538 4.544-0.413 0.756 0.075 0.975 0.031 1.131-0.206 0.25-0.375 0.031-0.863-0.431-0.969-0.275-0.069-2.313-0.125-2.813-0.088z"></path>
<path d="M20.337 1.962c-0.231 0.231-0.269 0.438-0.125 0.719 0.294 0.563 1.163 0.313 1.163-0.344 0-0.237-0.369-0.587-0.625-0.587-0.144 0-0.256 0.056-0.413 0.212z"></path>
<path d="M14 4.781c-4.4 0.6-8.125 3.681-9.544 7.894-0.394 1.181-0.525 1.963-0.563 3.337-0.025 0.981-0.013 1.394 0.075 2 0.537 3.775 2.794 6.981 6.169 8.769 2 1.056 4.375 1.512 6.606 1.281 5.106-0.538 9.231-4.281 10.294-9.344 0.119-0.575 0.169-1.019 0.194-1.894 0.044-1.325-0.031-2.113-0.306-3.231-0.219-0.912-0.756-2.287-0.994-2.537-0.363-0.387-1.056-0.1-1.056 0.438 0 0.063 0.081 0.294 0.181 0.512 0.712 1.575 0.981 2.956 0.925 4.756-0.031 1.212-0.15 1.887-0.512 2.969-1.113 3.325-3.894 5.925-7.262 6.8-5.85 1.519-11.725-2.194-12.938-8.188-0.175-0.875-0.162-3.144 0.031-4.012 0.819-3.744 3.412-6.675 6.956-7.856 1.244-0.419 1.8-0.5 3.306-0.5 1.5 0 2.013 0.075 3.331 0.5 0.75 0.244 0.962 0.244 1.169-0.019 0.163-0.213 0.163-0.575 0-0.787-0.225-0.287-1.856-0.756-3.188-0.919-0.706-0.081-2.137-0.069-2.875 0.031z"></path>
</symbol>
</defs>
</svg>
