<svg aria-hidden="true" style="position: absolute; width: 0; height: 0; overflow: hidden;" version="1.1" xmlns="http://www.w3.org/2000/svg" xmlns:xlink="http://www.w3.org/1999/xlink">
<defs>
<symbol id="icon-idea_1" viewBox="0 0 29 32">
<path d="M14.414 0.178c-0.027 0.096-0.041 0.889-0.027 1.75 0.041 1.45 0.055 1.559 0.315 1.559s0.274-0.109 0.315-1.436c0.027-0.793 0-1.573-0.041-1.75-0.082-0.328-0.451-0.41-0.561-0.123z"></path>
<path d="M5.497 3.87c-0.123 0.137 0.123 0.451 1.053 1.381 1.121 1.108 1.518 1.34 1.518 0.848 0-0.15-2.202-2.407-2.366-2.407-0.027 0-0.123 0.082-0.205 0.178z"></path>
<path d="M22.455 4.827c-0.615 0.615-1.121 1.203-1.121 1.285 0 0.479 0.41 0.232 1.518-0.862 0.93-0.93 1.176-1.244 1.053-1.381-0.082-0.096-0.178-0.178-0.232-0.178s-0.588 0.506-1.217 1.135z"></path>
<path d="M12.718 4.868c-2.421 0.643-4.499 2.311-5.58 4.485-0.629 1.258-0.862 2.284-0.862 3.774 0 2.12 0.656 3.815 2.256 5.812 0.834 1.039 0.957 1.368 1.463 3.802 0.178 0.862 0.41 1.614 0.561 1.805l0.26 0.342h7.768l0.26-0.328c0.137-0.191 0.369-0.848 0.492-1.477 0.643-3.036 0.588-2.885 1.6-4.239 1.026-1.381 1.778-2.79 2.038-3.87 0.219-0.944 0.191-2.981-0.068-3.938-0.998-3.788-4.417-6.414-8.328-6.373-0.615 0-1.45 0.096-1.86 0.205zM16.834 5.552c2.53 0.738 4.595 2.735 5.361 5.183 0.451 1.422 0.41 3.61-0.068 4.868-0.41 1.053-0.848 1.778-1.75 2.926-0.93 1.176-1.067 1.518-1.504 3.651-0.219 1.067-0.479 1.983-0.574 2.038-0.096 0.068-1.764 0.123-3.706 0.123h-3.515l-0.123-0.315c-0.068-0.164-0.274-1.094-0.479-2.051-0.397-1.997-0.438-2.092-1.627-3.679-1.067-1.422-1.545-2.407-1.819-3.638-0.26-1.258-0.232-2.256 0.082-3.515 0.684-2.653 2.626-4.691 5.333-5.552 0.998-0.328 3.35-0.342 4.39-0.041z"></path>
<path d="M17.942 10.694c-0.369 0.697-1.272 2.434-2.010 3.843l-1.326 2.585-1.614-1.586c-1.518-1.518-2.051-1.86-2.051-1.354 0 0.219 3.132 3.501 3.583 3.747 0.274 0.15 0.315 0.096 2.762-4.636 1.026-1.969 1.832-3.651 1.791-3.72-0.205-0.342-0.506-0.041-1.135 1.121z"></path>
<path d="M1.696 12.868c-0.191 0.315 0.26 0.451 1.559 0.506 1.491 0.055 2.229-0.109 1.942-0.451-0.137-0.164-0.52-0.205-1.791-0.205-1.012 0-1.641 0.055-1.709 0.15z"></path>
<path d="M24.205 12.923c-0.137 0.164-0.096 0.232 0.219 0.356 0.492 0.191 2.995 0.109 3.214-0.109 0.342-0.342-0.055-0.451-1.641-0.451-1.272 0-1.655 0.041-1.791 0.205z"></path>
<path d="M6.564 20.732c-0.684 0.656-1.231 1.244-1.231 1.313s0.096 0.15 0.219 0.205c0.15 0.055 0.574-0.273 1.368-1.067 0.629-0.629 1.149-1.217 1.149-1.313 0-0.451-0.397-0.232-1.504 0.862z"></path>
<path d="M21.374 19.761c-0.055 0.164 0.26 0.561 1.067 1.381 0.629 0.629 1.217 1.149 1.313 1.149 0.465 0 0.26-0.397-0.725-1.395-1.258-1.272-1.532-1.45-1.655-1.135z"></path>
<path d="M13.744 25.873c-1.354 0.055-2.544 0.137-2.626 0.178-0.096 0.027-0.178 0.164-0.178 0.287 0 0.219 0.26 0.232 3.35 0.137 3.761-0.096 4.198-0.15 4.144-0.479-0.055-0.273-1.149-0.301-4.691-0.123z"></path>
<path d="M14.195 27.405c-1.709 0.082-3.145 0.205-3.2 0.246-0.041 0.055-0.055 0.191 0 0.315 0.068 0.205 0.328 0.219 2.297 0.137 4.827-0.219 5.101-0.246 5.101-0.547 0-0.356-0.178-0.356-4.198-0.15z"></path>
<path d="M13.224 28.991c-1.039 0.068-1.928 0.137-1.969 0.191-0.041 0.041-0.041 0.178 0.014 0.301 0.082 0.205 0.315 0.219 2.585 0.137 3.788-0.137 4.335-0.205 4.335-0.506 0-0.246-0.123-0.26-1.532-0.232-0.848 0-2.393 0.055-3.432 0.109z"></path>
<path d="M12.212 30.304c-0.096 0.26 0.656 1.080 1.354 1.436 0.615 0.315 1.614 0.342 2.202 0.041 0.533-0.273 1.463-1.135 1.463-1.368 0-0.383-0.315-0.328-0.834 0.15-1.217 1.094-2.147 1.121-3.255 0.123-0.738-0.67-0.807-0.697-0.93-0.383z"></path>
</symbol>
</defs>
</svg>
